<svg xmlns="http://www.w3.org/2000/svg" viewBox="0 0 64 64" role="img" aria-hidden="true">
<path d="M36 11h16l6 6v24a5 5 0 0 1-5 5H36a5 5 0 0 1-5-5V16a5 5 0 0 1 5-5Z" fill="#3478F6" stroke="#101A3A" stroke-width="2" stroke-linejoin="round"/>
<path d="M52 11v6h6" fill="none" stroke="#101A3A" stroke-width="2" stroke-linejoin="round"/><g transform="translate(21 0)"><path d="M16 22h14M16 27h11M16 32h14" stroke="#101A3A" stroke-width="2" stroke-linecap="round"/></g>
<path d="M15 19h14l6 6v22a5 5 0 0 1-5 5H15a5 5 0 0 1-5-5V24a5 5 0 0 1 5-5Z" fill="#FFFFFF" stroke="#101A3A" stroke-width="2" stroke-linejoin="round"/>
<path d="M29 19v6h6" fill="none" stroke="#101A3A" stroke-width="2" stroke-linejoin="round"/><path d="M16 34h13M16 39h9" stroke="#FF4D67" stroke-width="2.2" stroke-linecap="round"/>
<circle cx="32" cy="34" r="8" fill="#101A3A" stroke="#FFFFFF" stroke-width="2"/>
<g fill="none" stroke="#101A3A" stroke-width="2.2" stroke-linecap="round" stroke-linejoin="round"><path d="M36 34h-8m3-3-3 3 3 3" stroke="#FFFFFF"/></g>
</svg>
